# xmcd
#
# Track frame offsets: 
#        150
#        16950
#        32938
#        66293
#        78322
#        95595
#        108217
#        119983
#        133723
#        149026
#        167912
#        184240
#        199009
#        217213
#        234242
#        249259
#        277941
#        302719
#        318004
#        330570
#
# Disc length: 4569 seconds
#
# Revision: 5
# Processed by: cddbd v1.5.2PL0 Copyright (c) Steve Scherf et al.
# Submitted via: ExactAudioCopyFreeDBPlugin 1.0
#
DISCID=2711d714
DTITLE=Various Artist - Motown  The Complete No. 1's
DYEAR=2008
DGENRE=R&B
TTITLE0=Stevie Wonder - Higher Ground
TTITLE1=Eddie Kendricks - Keep On Truckin' (Part 1)
TTITLE2=Stevie Wonder - Living For The City
TTITLE3=The Tamptsations - Let Your Hair Down
TTITLE4=Eddie Kendricks - Boogie Down
TTITLE5=Diana Ross - Last Time I Saw Him
TTITLE6=The Jackson 5 - Dancing Machine
TTITLE7=The Miracles - Do it Baby
TTITLE8=Stevie Wonder - You Haven't Done Nothin'
TTITLE9=Stevie Wonder - Boogie On Reggae Woman
TTITLE10=The Temptations - Happy People
TTITLE11=Eddie Kendricks - Shoeshine Boy
TTITLE12=The Temptations - Shakey Ground
TTITLE13=Smokey Robinson - Baby That's Backatcha
TTITLE14=The Commodores - Slippery When Wet
TTITLE15=The Jackson 5 - Forever Came Today
TTITLE16=David Ruffin - Walk Away from Love
TTITLE17=Diana Ross - Theme From Mahogamy (Do You Know Where You're Go
TTITLE17=ing To)
TTITLE18=T.G. Sheppard - Devil In The Bottle
TTITLE19=T.G. Sheppard - Tryin' To Beat The Morning Home
EXTD=
EXTT0=
EXTT1=
EXTT2=
EXTT3=
EXTT4=
EXTT5=
EXTT6=
EXTT7=
EXTT8=
EXTT9=
EXTT10=
EXTT11=
EXTT12=
EXTT13=
EXTT14=
EXTT15=
EXTT16=
EXTT17=
EXTT18=
EXTT19=
PLAYORDER=
